<svg width="136" height="124" viewBox="0 0 136 124" fill="none" xmlns="http://www.w3.org/2000/svg">
<g filter="url(#filter0_f_126_2013)">
<path d="M85.8646 50C85.8646 54.1996 84.7626 58.3258 82.6687 61.9662C80.5748 65.6066 77.5623 68.6338 73.9321 70.7455C70.302 72.8571 66.1813 73.9792 61.9817 73.9997C57.7821 74.0202 53.6506 72.9383 50 70.8622L61.8646 50H85.8646Z" fill="#209EE6"/>
</g>
<g filter="url(#filter1_d_126_2013)">
<path fill-rule="evenodd" clip-rule="evenodd" d="M36 102.304C36 102.866 36.3041 103.338 36.7324 103.557C36.9558 103.913 37.3344 104.153 37.7564 104.153H91.398C91.4488 104.153 91.4945 104.147 91.5444 104.141L91.5593 104.139C94.1598 103.975 96.1645 103.14 97.5919 101.647C99.0194 100.147 99.8138 98.0512 99.9876 95.3598C99.9938 95.2913 100 95.2228 100 95.1475V21.3697C100 20.6095 99.4414 20 98.7587 20H49.2816H37.2413C36.5524 20 36 20.6164 36 21.3697V102.304ZM97.5237 22.7325V95.1132C97.3995 97.1267 96.8596 98.6539 95.8852 99.6743C94.8984 100.708 93.4088 101.297 91.4166 101.421H91.3918H38.4763V22.7325H49.2816H97.5237ZM78.5074 92.7163C78.5074 93.4765 79.0597 94.086 79.7362 94.086H90.0884C90.7711 94.086 91.3173 93.4696 91.3173 92.7163C91.3173 91.9561 90.7649 91.3466 90.0884 91.3466H79.7362C79.0535 91.3466 78.5074 91.963 78.5074 92.7163ZM45.2102 82.745C45.2102 83.5052 45.7626 84.1147 46.4391 84.1147H90.194C90.8767 84.1147 91.4228 83.4984 91.4228 82.745C91.4228 81.9849 90.8704 81.3754 90.194 81.3754H46.4391C45.7564 81.3754 45.2102 81.9917 45.2102 82.745ZM45.4088 72.7738C45.4088 73.5339 45.9612 74.1434 46.6377 74.1434H90.0822C90.7649 74.1434 91.3111 73.5271 91.3111 72.7738C91.3111 72.0136 90.7587 71.4041 90.0822 71.4041H46.6377C45.955 71.4041 45.4088 72.0204 45.4088 72.7738ZM45.2102 62.8025C45.2102 63.5627 45.7626 64.1722 46.4391 64.1722H65.1389C65.8216 64.1722 66.3677 63.5558 66.3677 62.8025C66.3677 62.0423 65.8154 61.4328 65.1389 61.4328H46.4391C45.7564 61.4328 45.2102 62.0492 45.2102 62.8025ZM68.6827 62.8025C68.6827 63.5627 69.2351 64.1722 69.9116 64.1722H90.0822C90.7649 64.1722 91.3111 63.5558 91.3111 62.8025C91.3111 62.0423 90.7587 61.4328 90.0822 61.4328H69.9116C69.2289 61.4328 68.6827 62.0492 68.6827 62.8025ZM63.5708 34.6238H58.19C57.8748 34.6251 57.5729 34.7489 57.35 34.9681C57.1272 35.1874 57.0014 35.4843 57 35.7944V37.7622C58.3718 38.7084 59.8296 39.5276 61.3549 40.2094C62.7578 40.8314 64.22 41.3148 65.7201 41.6525V40.5121C65.7201 40.3938 65.7439 40.2766 65.7901 40.1673C65.8363 40.058 65.904 39.9587 65.9893 39.8753C66.0746 39.7918 66.1759 39.7258 66.2873 39.6809C66.3986 39.6361 66.5179 39.6133 66.6383 39.614H68.3515C68.4718 39.6133 68.5911 39.6361 68.7025 39.6809C68.8138 39.7258 68.9151 39.7918 69.0004 39.8753C69.0858 39.9587 69.1535 40.058 69.1997 40.1673C69.2459 40.2766 69.2697 40.3938 69.2697 40.5121V41.6777C70.8082 41.3417 72.3072 40.8496 73.7425 40.2094C75.232 39.5478 76.6571 38.7541 78 37.8379V35.7944C77.9973 35.4839 77.8704 35.1869 77.6467 34.9678C77.423 34.7487 77.1205 34.6251 76.8048 34.6238H71.4138V32.8325C71.4124 32.6121 71.3228 32.4012 71.1644 32.2453C71.006 32.0895 70.7915 32.0013 70.5674 32H64.4121C64.1885 32.0013 63.9745 32.0896 63.8169 32.2456C63.6593 32.4016 63.5708 32.6126 63.5708 32.8325V34.6238ZM66.746 40.5777H68.2848C68.3076 40.5837 68.3271 40.598 68.3395 40.6177C68.3519 40.6374 68.3562 40.661 68.3515 40.6837V43.8877C68.359 43.9072 68.359 43.9288 68.3515 43.9483C68.3333 43.9647 68.3095 43.9737 68.2848 43.9735H66.746C66.7228 43.9735 66.7007 43.9645 66.6843 43.9484C66.668 43.9323 66.6588 43.9105 66.6588 43.8877V40.6686C66.6581 40.6569 66.6598 40.6452 66.6639 40.6342C66.6679 40.6232 66.6743 40.6131 66.6824 40.6046C66.6906 40.5961 66.7004 40.5893 66.7114 40.5847C66.7223 40.5801 66.7341 40.5777 66.746 40.5777ZM69.9314 33.1353H69.9316C69.9592 33.1353 69.9858 33.1458 70.0058 33.1645C70.0258 33.1833 70.0378 33.209 70.0391 33.2362V34.5885H64.9558V33.2362C64.9558 33.2094 64.9666 33.1838 64.9858 33.1648C65.0051 33.1459 65.0312 33.1353 65.0584 33.1353H69.9314ZM78 46.8294V39.6544L77.9846 39.6746C76.8803 40.3602 75.7285 40.9688 74.5376 41.4961C72.8923 42.2226 71.1727 42.7741 69.4082 43.141H69.2645V44.0441C69.2635 44.2837 69.1678 44.5135 68.9978 44.685C68.9121 44.7687 68.8104 44.835 68.6987 44.88C68.5869 44.925 68.4671 44.9479 68.3464 44.9473H66.6331C66.5131 44.9475 66.3943 44.9244 66.2834 44.8794C66.1725 44.8344 66.0717 44.7683 65.9868 44.685C65.8168 44.5135 65.7211 44.2837 65.7201 44.0441V43.1056H65.6842C63.9203 42.7363 62.201 42.1849 60.5547 41.4607C59.3247 40.9157 58.1366 40.2834 57 39.5686V46.8294C57.0014 47.1394 57.1272 47.4364 57.35 47.6557C57.5729 47.8749 57.8748 47.9987 58.19 48H76.8048C77.1209 48 77.4241 47.8768 77.6481 47.6574C77.8721 47.4381 77.9986 47.1403 78 46.8294Z" fill="#323547"/>
</g>
<defs>
<filter id="filter0_f_126_2013" x="0" y="0" width="135.865" height="124" filterUnits="userSpaceOnUse" color-interpolation-filters="sRGB">
<feFlood flood-opacity="0" result="BackgroundImageFix"/>
<feBlend mode="normal" in="SourceGraphic" in2="BackgroundImageFix" result="shape"/>
<feGaussianBlur stdDeviation="25" result="effect1_foregroundBlur_126_2013"/>
</filter>
<filter id="filter1_d_126_2013" x="32" y="20" width="72" height="92.1531" filterUnits="userSpaceOnUse" color-interpolation-filters="sRGB">
<feFlood flood-opacity="0" result="BackgroundImageFix"/>
<feColorMatrix in="SourceAlpha" type="matrix" values="0 0 0 0 0 0 0 0 0 0 0 0 0 0 0 0 0 0 127 0" result="hardAlpha"/>
<feOffset dy="4"/>
<feGaussianBlur stdDeviation="2"/>
<feComposite in2="hardAlpha" operator="out"/>
<feColorMatrix type="matrix" values="0 0 0 0 0 0 0 0 0 0 0 0 0 0 0 0 0 0 0.25 0"/>
<feBlend mode="normal" in2="BackgroundImageFix" result="effect1_dropShadow_126_2013"/>
<feBlend mode="normal" in="SourceGraphic" in2="effect1_dropShadow_126_2013" result="shape"/>
</filter>
</defs>
</svg>
