<svg width="136" height="124" viewBox="0 0 136 124" fill="none" xmlns="http://www.w3.org/2000/svg">
<g filter="url(#filter0_f_1800_1524)">
<path d="M86 50C86 54.1996 84.898 58.3258 82.8041 61.9662C80.7102 65.6066 77.6977 68.6338 74.0675 70.7455C70.4374 72.8571 66.3167 73.9792 62.1171 73.9997C57.9175 74.0202 53.786 72.9383 50.1354 70.8622L62 50H86Z" fill="#F8B121"/>
</g>
<g filter="url(#filter1_d_1800_1524)">
<path d="M88.3567 32.9034C88.3567 40.9802 81.9622 47.4765 74.1369 47.4765C66.3116 47.4765 59.9172 40.9802 59.9172 32.9034C59.9172 24.8265 66.3116 18.3303 74.1369 18.3303C81.9622 18.3303 88.3567 24.8265 88.3567 32.9034Z" stroke="#383B50" stroke-width="2.66054"/>
<path d="M73.7519 32.3056C75.2101 32.3056 76.3903 31.0123 76.3903 29.4145C76.3903 27.8167 75.2101 26.5234 73.7519 26.5234C72.2937 26.5234 71.1135 27.8167 71.1135 29.4145C71.1135 31.0123 72.2937 32.3056 73.7519 32.3056ZM75.5611 33.1316H75.3656C74.8756 33.3897 74.3314 33.5446 73.7519 33.5446C73.1724 33.5446 72.6306 33.3897 72.1383 33.1316H71.9427C70.4445 33.1316 69.229 34.4635 69.229 36.1052V36.8486C69.229 37.5327 69.7355 38.0877 70.3597 38.0877H77.1441C77.7684 38.0877 78.2748 37.5327 78.2748 36.8486V36.1052C78.2748 34.4635 77.0593 33.1316 75.5611 33.1316Z" fill="#383B50"/>
<path d="M58.0107 54.1189C58.0107 63.3935 50.6669 70.8607 41.6705 70.8607C32.674 70.8607 25.3303 63.3935 25.3303 54.1189C25.3303 44.8443 32.674 37.3771 41.6705 37.3771C50.6669 37.3771 58.0107 44.8443 58.0107 54.1189Z" stroke="#383B50" stroke-width="2.66054"/>
<path d="M42.0692 53.0531C44.0349 53.0531 45.6258 51.3795 45.6258 49.3117C45.6258 47.2439 44.0349 45.5703 42.0692 45.5703C40.1036 45.5703 38.5126 47.2439 38.5126 49.3117C38.5126 51.3795 40.1036 53.0531 42.0692 53.0531ZM44.5081 54.122H44.2445C43.584 54.4561 42.8504 54.6565 42.0692 54.6565C41.288 54.6565 40.5577 54.4561 39.894 54.122H39.6304C37.6108 54.122 35.9722 55.8457 35.9722 57.9703V58.9323C35.9722 59.8176 36.6549 60.5358 37.4964 60.5358H46.642C47.4835 60.5358 48.1663 59.8176 48.1663 58.9323V57.9703C48.1663 55.8457 46.5277 54.122 44.5081 54.122Z" fill="#383B50"/>
<path d="M95.2869 82.7035C95.2869 94.2404 86.1499 103.542 74.9414 103.542C63.7329 103.542 54.5959 94.2404 54.5959 82.7035C54.5959 71.1666 63.7329 61.8654 74.9414 61.8654C86.1499 61.8654 95.2869 71.1666 95.2869 82.7035Z" stroke="#383B50" stroke-width="2.66054"/>
<path d="M74.7847 81.6217C77.4336 81.6217 79.5776 79.3395 79.5776 76.5198C79.5776 73.7001 77.4336 71.418 74.7847 71.418C72.1358 71.418 69.9918 73.7001 69.9918 76.5198C69.9918 79.3395 72.1358 81.6217 74.7847 81.6217ZM78.0713 83.0794H77.7161C76.826 83.5349 75.8374 83.8082 74.7847 83.8082C73.732 83.8082 72.7477 83.5349 71.8534 83.0794H71.4982C68.7765 83.0794 66.5684 85.4299 66.5684 88.327V89.6389C66.5684 90.8461 67.4884 91.8254 68.6224 91.8254H80.947C82.081 91.8254 83.0011 90.8461 83.0011 89.6389V88.327C83.0011 85.4299 80.7929 83.0794 78.0713 83.0794Z" fill="#383B50"/>
<line y1="-1.33027" x2="7.70898" y2="-1.33027" transform="matrix(-0.699135 -0.71499 0.699135 -0.71499 60.3789 69.3633)" stroke="#383B50" stroke-width="2.66054"/>
<line y1="-1.33027" x2="7.90412" y2="-1.33027" transform="matrix(0.852323 -0.523015 0.506015 0.862524 54.9897 44.5605)" stroke="#383B50" stroke-width="2.66054"/>
</g>
<defs>
<filter id="filter0_f_1800_1524" x="0.135254" y="0" width="135.865" height="124" filterUnits="userSpaceOnUse" color-interpolation-filters="sRGB">
<feFlood flood-opacity="0" result="BackgroundImageFix"/>
<feBlend mode="normal" in="SourceGraphic" in2="BackgroundImageFix" result="shape"/>
<feGaussianBlur stdDeviation="25" result="effect1_foregroundBlur_1800_1524"/>
</filter>
<filter id="filter1_d_1800_1524" x="20" y="17" width="80.6172" height="95.8711" filterUnits="userSpaceOnUse" color-interpolation-filters="sRGB">
<feFlood flood-opacity="0" result="BackgroundImageFix"/>
<feColorMatrix in="SourceAlpha" type="matrix" values="0 0 0 0 0 0 0 0 0 0 0 0 0 0 0 0 0 0 127 0" result="hardAlpha"/>
<feOffset dy="4"/>
<feGaussianBlur stdDeviation="2"/>
<feComposite in2="hardAlpha" operator="out"/>
<feColorMatrix type="matrix" values="0 0 0 0 0 0 0 0 0 0 0 0 0 0 0 0 0 0 0.25 0"/>
<feBlend mode="normal" in2="BackgroundImageFix" result="effect1_dropShadow_1800_1524"/>
<feBlend mode="normal" in="SourceGraphic" in2="effect1_dropShadow_1800_1524" result="shape"/>
</filter>
</defs>
</svg>
