<svg width="136" height="124" viewBox="0 0 136 124" fill="none" xmlns="http://www.w3.org/2000/svg">
<g filter="url(#filter0_f_1800_2809)">
<path d="M86 50C86 54.1996 84.898 58.3258 82.8041 61.9662C80.7102 65.6066 77.6977 68.6338 74.0675 70.7455C70.4374 72.8571 66.3167 73.9792 62.1171 73.9997C57.9175 74.0202 53.786 72.9383 50.1354 70.8622L62 50H86Z" fill="#9868FF"/>
</g>
<g filter="url(#filter1_d_1800_2809)">
<path fill-rule="evenodd" clip-rule="evenodd" d="M93.1831 21.0594H33.3211C31.8735 21.0594 30.7 22.2329 30.7 23.6805V68.8187C30.7 70.2663 31.8735 71.4398 33.3211 71.4398H93.1831C94.6129 71.4398 95.8042 70.2571 95.8042 68.7917V23.7075C95.8042 22.2421 94.6129 21.0594 93.1831 21.0594ZM33.3211 18.3594H93.1831C96.1219 18.3594 98.5042 20.7687 98.5042 23.7075V68.7917C98.5042 71.7305 96.1219 74.1398 93.1831 74.1398H33.3211C30.3823 74.1398 28 71.7575 28 68.8187V23.6805C28 20.7417 30.3823 18.3594 33.3211 18.3594Z" fill="#383B50"/>
<path fill-rule="evenodd" clip-rule="evenodd" d="M87.8228 30.7H70.6082V62.0334H87.8228V30.7ZM87.8624 62.0334H87.8622C87.8623 62.0334 87.8624 62.0334 87.8624 62.0334ZM70.6082 62.0731L70.6082 62.0729C70.6082 62.073 70.6082 62.0731 70.6082 62.0731ZM70.5687 28C69.0994 28 67.9082 29.1912 67.9082 30.6605V62.0729C67.9082 63.5423 69.0994 64.7334 70.5687 64.7334H87.8622C89.3316 64.7334 90.5228 63.5423 90.5228 62.0729V30.6605C90.5228 29.1912 89.3316 28 87.8622 28H70.5687Z" fill="#383B50"/>
<path d="M37.312 30C37.312 29.4477 37.7597 29 38.312 29H62.9174C63.4697 29 63.9174 29.4477 63.9174 30V30.6C63.9174 31.1523 63.4697 31.6 62.9174 31.6H38.312C37.7597 31.6 37.312 31.1523 37.312 30.6V30Z" fill="#383B50"/>
<path d="M37.312 51.7676C37.312 51.2153 37.7597 50.7676 38.312 50.7676H62.9174C63.4697 50.7676 63.9174 51.2153 63.9174 51.7676V52.3676C63.9174 52.9199 63.4697 53.3676 62.9174 53.3676H38.312C37.7597 53.3676 37.312 52.9199 37.312 52.3676V51.7676Z" fill="#383B50"/>
<path d="M37.312 40.8848C37.312 40.3325 37.7597 39.8848 38.312 39.8848H62.9174C63.4697 39.8848 63.9174 40.3325 63.9174 40.8848V41.4848C63.9174 42.037 63.4697 42.4848 62.9174 42.4848H38.312C37.7597 42.4848 37.312 42.0371 37.312 41.4848V40.8848Z" fill="#383B50"/>
<path d="M37.312 62.6523C37.312 62.1001 37.7597 61.6523 38.312 61.6523H62.9174C63.4697 61.6523 63.9174 62.1001 63.9174 62.6523V63.2523C63.9174 63.8046 63.4697 64.2523 62.9174 64.2523H38.312C37.7597 64.2523 37.312 63.8046 37.312 63.2523V62.6523Z" fill="#383B50"/>
<path d="M88.7174 93.0953C91.8726 93.0953 94.4263 90.377 94.4263 87.0184C94.4263 83.6598 91.8726 80.9414 88.7174 80.9414C85.5622 80.9414 83.0085 83.6598 83.0085 87.0184C83.0085 90.377 85.5622 93.0953 88.7174 93.0953ZM92.632 94.8316H92.209C91.1487 95.3742 89.9713 95.6997 88.7174 95.6997C87.4634 95.6997 86.2911 95.3742 85.2258 94.8316H84.8027C81.5608 94.8316 78.9307 97.6313 78.9307 101.082V102.645C78.9307 104.083 80.0266 105.249 81.3773 105.249H96.0574C97.4082 105.249 98.5041 104.083 98.5041 102.645V101.082C98.5041 97.6313 95.8739 94.8316 92.632 94.8316Z" fill="#383B50"/>
<path d="M63.2521 93.0953C66.4073 93.0953 68.961 90.377 68.961 87.0184C68.961 83.6598 66.4073 80.9414 63.2521 80.9414C60.0969 80.9414 57.5432 83.6598 57.5432 87.0184C57.5432 90.377 60.0969 93.0953 63.2521 93.0953ZM67.1668 94.8316H66.7437C65.6835 95.3742 64.506 95.6997 63.2521 95.6997C61.9982 95.6997 60.8258 95.3742 59.7605 94.8316H59.3374C56.0956 94.8316 53.4654 97.6313 53.4654 101.082V102.645C53.4654 104.083 54.5613 105.249 55.9121 105.249H70.5921C71.9429 105.249 73.0388 104.083 73.0388 102.645V101.082C73.0388 97.6313 70.4086 94.8316 67.1668 94.8316Z" fill="#383B50"/>
<path d="M37.7867 93.0953C40.9419 93.0953 43.4956 90.377 43.4956 87.0184C43.4956 83.6598 40.9419 80.9414 37.7867 80.9414C34.6315 80.9414 32.0778 83.6598 32.0778 87.0184C32.0778 90.377 34.6315 93.0953 37.7867 93.0953ZM41.7014 94.8316H41.2783C40.2181 95.3742 39.0406 95.6997 37.7867 95.6997C36.5328 95.6997 35.3604 95.3742 34.2951 94.8316H33.872C30.6302 94.8316 28 97.6313 28 101.082V102.645C28 104.083 29.0959 105.249 30.4467 105.249H45.1267C46.4775 105.249 47.5734 104.083 47.5734 102.645V101.082C47.5734 97.6313 44.9432 94.8316 41.7014 94.8316Z" fill="#383B50"/>
</g>
<defs>
<filter id="filter0_f_1800_2809" x="0.135437" y="0" width="135.865" height="124" filterUnits="userSpaceOnUse" color-interpolation-filters="sRGB">
<feFlood flood-opacity="0" result="BackgroundImageFix"/>
<feBlend mode="normal" in="SourceGraphic" in2="BackgroundImageFix" result="shape"/>
<feGaussianBlur stdDeviation="25" result="effect1_foregroundBlur_1800_2809"/>
</filter>
<filter id="filter1_d_1800_2809" x="24" y="18.3594" width="78.5042" height="94.8906" filterUnits="userSpaceOnUse" color-interpolation-filters="sRGB">
<feFlood flood-opacity="0" result="BackgroundImageFix"/>
<feColorMatrix in="SourceAlpha" type="matrix" values="0 0 0 0 0 0 0 0 0 0 0 0 0 0 0 0 0 0 127 0" result="hardAlpha"/>
<feOffset dy="4"/>
<feGaussianBlur stdDeviation="2"/>
<feComposite in2="hardAlpha" operator="out"/>
<feColorMatrix type="matrix" values="0 0 0 0 0 0 0 0 0 0 0 0 0 0 0 0 0 0 0.25 0"/>
<feBlend mode="normal" in2="BackgroundImageFix" result="effect1_dropShadow_1800_2809"/>
<feBlend mode="normal" in="SourceGraphic" in2="effect1_dropShadow_1800_2809" result="shape"/>
</filter>
</defs>
</svg>
