<svg width="24" height="24" viewBox="0 0 24 24" fill="none" xmlns="http://www.w3.org/2000/svg">
<path d="M4 8.66667H7.33333V20H4V8.66667ZM5.65667 7.33333H5.638C4.64333 7.33333 4 6.592 4 5.666C4 4.72 4.66333 4 5.676 4C6.69 4 7.31467 4.72 7.33333 5.666C7.33333 6.59133 6.69 7.33333 5.65667 7.33333ZM20 20H16.6667V13.934C16.6667 12.4687 15.85 11.4687 14.5387 11.4687C13.538 11.4687 12.9967 12.1433 12.734 12.7953C12.638 13.0287 12.6667 13.674 12.6667 14V20H9.33333V8.66667H12.6667V10.4107C13.1473 9.66667 13.9 8.66667 15.8253 8.66667C18.2107 8.66667 19.9993 10.1667 19.9993 13.516L20 20Z" fill="#0288D1"/>
</svg>
