<svg width="136" height="124" viewBox="0 0 136 124" fill="none" xmlns="http://www.w3.org/2000/svg">
<g filter="url(#filter0_f_1800_1527)">
<path d="M86 50C86 54.1996 84.898 58.3258 82.8041 61.9662C80.7102 65.6066 77.6977 68.6338 74.0675 70.7455C70.4374 72.8571 66.3167 73.9792 62.1171 73.9997C57.9175 74.0202 53.786 72.9383 50.1354 70.8622L62 50H86Z" fill="#65BE6B"/>
</g>
<g filter="url(#filter1_d_1800_1527)">
<mask id="path-2-inside-1_1800_1527" fill="white">
<path d="M96.826 93.2026V23.6804C96.826 20.7417 94.4436 18.3594 91.5049 18.3594H51.665C50.11 18.3594 48.6327 19.0396 47.6218 20.2212L38.1489 31.2934C37.3243 32.2573 36.8711 33.4841 36.8711 34.7526V101.407C36.8711 104.346 39.2534 106.728 42.1922 106.728H86.2457H91.5049C94.4436 106.728 96.826 104.346 96.826 101.407V93.2026Z"/>
</mask>
<path d="M38.1489 31.2934L40.1706 33.023L40.1706 33.023L38.1489 31.2934ZM47.6218 20.2212L45.6002 18.4916L45.6002 18.4916L47.6218 20.2212ZM94.1654 23.6804V93.2026H99.4865V23.6804H94.1654ZM86.2457 104.068H42.1922V109.389H86.2457V104.068ZM51.665 21.0199H91.5049V15.6988H51.665V21.0199ZM39.5316 101.407V34.7526H34.2106V101.407H39.5316ZM40.1706 33.023L49.6434 21.9508L45.6002 18.4916L36.1273 29.5638L40.1706 33.023ZM86.2457 109.389H91.5049V104.068H86.2457V109.389ZM99.4865 101.407V93.2026H94.1654V101.407H99.4865ZM51.665 15.6988C49.3325 15.6988 47.1166 16.7192 45.6002 18.4916L49.6434 21.9508C50.1489 21.36 50.8875 21.0199 51.665 21.0199V15.6988ZM91.5049 109.389C95.913 109.389 99.4865 105.816 99.4865 101.407H94.1654C94.1654 102.877 92.9743 104.068 91.5049 104.068V109.389ZM42.1922 104.068C40.7228 104.068 39.5316 102.877 39.5316 101.407H34.2106C34.2106 105.816 37.784 109.389 42.1922 109.389V104.068ZM39.5316 34.7526C39.5316 34.1183 39.7582 33.5049 40.1706 33.023L36.1273 29.5638C34.8903 31.0096 34.2106 32.8498 34.2106 34.7526H39.5316ZM99.4865 23.6804C99.4865 19.2723 95.913 15.6988 91.5049 15.6988V21.0199C92.9743 21.0199 94.1654 22.2111 94.1654 23.6804H99.4865Z" fill="#383B50" mask="url(#path-2-inside-1_1800_1527)"/>
<rect x="58.0317" y="29.1797" width="31.7408" height="3.6069" rx="1.33027" fill="#383B50"/>
<rect x="43.9248" y="47.2148" width="45.8478" height="3.6069" rx="1.33027" fill="#383B50"/>
<rect x="43.9248" y="58.0352" width="45.8478" height="3.6069" rx="1.33027" fill="#383B50"/>
<path d="M52.7412 19.2617V37.3409C52.7412 38.8102 51.55 40.0014 50.0807 40.0014H36.8711" stroke="#383B50" stroke-width="2.66054"/>
<rect x="21" y="38.7676" width="10.6421" height="4.08149" rx="0.665134" fill="#383B50"/>
<path d="M31.6421 73.5697V44.8741C31.6421 44.5068 31.3444 44.209 30.977 44.209H28.4052C28.0378 44.209 27.74 44.5068 27.74 44.8741V65.3885C27.74 65.7558 27.4422 66.0536 27.0749 66.0536H25.5673C25.1999 66.0536 24.9021 65.7558 24.9021 65.3885V44.8741C24.9021 44.5068 24.6043 44.209 24.237 44.209H21.6651C21.2978 44.209 21 44.5068 21 44.8741V73.5697C21 73.6676 21.0216 73.7643 21.0633 73.8529L25.7193 83.7453C25.9589 84.2545 26.6832 84.2545 26.9229 83.7453L31.5788 73.8529C31.6205 73.7643 31.6421 73.6676 31.6421 73.5697Z" fill="#383B50"/>
<path d="M44.9448 91.4171H52.4597C52.9829 91.4171 54.4764 91.9495 56.2647 94.0788C57.6758 95.7132 61.0876 98.9072 63.4467 98.6083C64.0073 98.5373 64.9972 97.8612 65.4919 96.3669C65.5795 96.1023 65.8439 95.6198 66.681 96.3669C67.6481 97.2301 70.2386 97.8519 71.1518 94.8259C71.3048 94.3192 71.675 93.369 72.8165 94.0788C73.9263 94.717 76.3171 95.3023 77.002 92.5378C77.0972 92.1643 77.5062 91.5479 78.3814 92.0709C78.9603 92.4169 80.5692 92.6499 81.7107 91.6039C82.1697 91.1834 83.02 89.7143 81.9961 88.7554L69.4871 79.3228C69.3035 79.1587 68.121 78.9242 67.2517 79.4162L61.1637 83.5255C60.5454 83.8368 58.9948 84.1512 57.7392 82.9184C57.2546 82.4427 56.6357 81.0879 57.7392 79.7431L65.6346 72.4585C66.4114 71.8047 68.4122 70.7868 70.2006 71.9448L78.5716 77.0814C78.9997 77.2822 80.1821 77.7352 81.3302 77.7352H87.5134" stroke="#383B50" stroke-width="2.66054" stroke-linecap="round" stroke-linejoin="round"/>
</g>
<defs>
<filter id="filter0_f_1800_1527" x="0.135254" y="0" width="135.865" height="124" filterUnits="userSpaceOnUse" color-interpolation-filters="sRGB">
<feFlood flood-opacity="0" result="BackgroundImageFix"/>
<feBlend mode="normal" in="SourceGraphic" in2="BackgroundImageFix" result="shape"/>
<feGaussianBlur stdDeviation="25" result="effect1_foregroundBlur_1800_1527"/>
</filter>
<filter id="filter1_d_1800_1527" x="17" y="18.3594" width="83.8262" height="96.3691" filterUnits="userSpaceOnUse" color-interpolation-filters="sRGB">
<feFlood flood-opacity="0" result="BackgroundImageFix"/>
<feColorMatrix in="SourceAlpha" type="matrix" values="0 0 0 0 0 0 0 0 0 0 0 0 0 0 0 0 0 0 127 0" result="hardAlpha"/>
<feOffset dy="4"/>
<feGaussianBlur stdDeviation="2"/>
<feComposite in2="hardAlpha" operator="out"/>
<feColorMatrix type="matrix" values="0 0 0 0 0 0 0 0 0 0 0 0 0 0 0 0 0 0 0.25 0"/>
<feBlend mode="normal" in2="BackgroundImageFix" result="effect1_dropShadow_1800_1527"/>
<feBlend mode="normal" in="SourceGraphic" in2="effect1_dropShadow_1800_1527" result="shape"/>
</filter>
</defs>
</svg>
